<svg class="marks" width="200" height="200" viewBox="0 0 200 200" version="1.1" xmlns="http://www.w3.org/2000/svg" xmlns:xlink="http://www.w3.org/1999/xlink"><style>* { fill: none; } tspan { fill: inherit; } path { stroke-miterlimit: 10; }</style><g transform="translate(0,0)"><g class="mark-group role-frame root" role="graphics-object" aria-roledescription="group mark container"><g transform="translate(0,0)"><path class="background" aria-hidden="true" d="M0,0h200v200h-200Z"></path><g><g class="mark-arc role-mark" role="graphics-symbol" aria-roledescription="arc mark container"><path transform="translate(100,100)" d="M6.123233995736766e-15,-100A100,100,0,0,1,57.15725654568573,-82.05515233165231L0,0Z" style="fill: #1f77b4;"></path><path transform="translate(100,100)" d="M57.15725654568573,-82.05515233165231A100,100,0,0,1,99.87630374899909,-4.9723183162050395L0,0Z" style="fill: #aec7e8;"></path><path transform="translate(100,100)" d="M99.87630374899909,-4.9723183162050395A100,100,0,0,1,9.932335489720131,99.50552101124663L0,0Z" style="fill: #ff7f0e;"></path><path transform="translate(100,100)" d="M9.932335489720131,99.50552101124663A100,100,0,0,1,-34.930417521764475,93.70093879868658L0,0Z" style="fill: #ffbb78;"></path><path transform="translate(100,100)" d="M-34.930417521764475,93.70093879868658A100,100,0,0,1,-98.88856907543453,14.867780809959994L0,0Z" style="fill: #2ca02c;"></path><path transform="translate(100,100)" d="M-98.88856907543453,14.867780809959994A100,100,0,0,1,-48.22184717449315,-87.60509948102238L0,0Z" style="fill: #98df8a;"></path></g></g><path class="foreground" aria-hidden="true" d="" style="display: none;"></path></g></g></g></svg>